# xmcd CD database file generated by OrangeCD 5.2
#
# Track frame offsets:
#	150
#	17547
#	40975
#	75965
#	96200
#	110492
#	129710
#	150640
#	166915
#	181203
#	196803
#	213041
#	239516
#	257238
#	270963
#	287688
#	304751
#	322751
#
# Disc length: 4796 seconds
#
# Revision: 0
# Processed by: cddbd v1.5.1PL0 Copyright (c) Steve Scherf et al.
# Submitted via: OrangeCD 5.2
#
DISCID=e212ba12
DTITLE=Green Peter - In The Skies and Kolors
DYEAR=1900
DGENRE=Blues
TTITLE0=In The Skies
TTITLE1=Slabo Day
TTITLE2=A Fool No More
TTITLE3=Tribal Dance
TTITLE4=Seven Star
TTITLE5=Funky Chunk
TTITLE6=Just For You
TTITLE7=Pround Pinto
TTITLE8=Aposite
TTITLE9=What Am I Doing Here
TTITLE10=Bad Bad Feeling
TTITLE11=Big Boy Now
TTITLE12=Black Woman
TTITLE13=Bandit
TTITLE14=Same Old Blues
TTITLE15=Liquor And You
TTITLE16=Gotta Do It With Me
TTITLE17=Funky Jam
EXTD=
EXTT0=
EXTT1=
EXTT2=
EXTT3=
EXTT4=
EXTT5=
EXTT6=
EXTT7=
EXTT8=
EXTT9=
EXTT10=
EXTT11=
EXTT12=
EXTT13=
EXTT14=
EXTT15=
EXTT16=
EXTT17=
PLAYORDER=
